<svg width="256" height="256" xmlns="http://www.w3.org/2000/svg">
  <!-- Corrupted cat placeholder (81-100% doom) -->
  <rect x="20" y="20" width="216" height="216" rx="30" fill="#9632C8" />

  <!-- Simple cat face (glitchy) -->
  <circle cx="85" cy="95" r="18" fill="#FF00FF" />
  <rect x="75" y="88" width="20" height="14" fill="#000000" />

  <circle cx="171" cy="105" r="18" fill="#00FFFF" />
  <rect x="161" y="98" width="20" height="14" fill="#000000" />

  <!-- Corrupted mouth -->
  <path d="M 70 145 L 100 155 L 130 145 L 160 160 L 190 145" stroke="#000000" stroke-width="4" fill="none" />

  <!-- Ears (corrupted) -->
  <polygon points="45,25 90,70 100,25" fill="#6420A0" />
  <polygon points="211,35 166,80 156,35" fill="#6420A0" />

  <!-- Glitch effects -->
  <rect x="60" y="50" width="40" height="3" fill="#FF00FF" opacity="0.7" />
  <rect x="150" y="120" width="50" height="3" fill="#00FFFF" opacity="0.7" />
  <rect x="30" y="170" width="30" height="3" fill="#FFFF00" opacity="0.7" />

  <!-- Text -->
  <text x="128" y="190" font-size="18" font-family="Arial" text-anchor="middle" fill="#FFFFFF">CORRUPTED</text>
  <text x="128" y="210" font-size="16" font-family="Arial" text-anchor="middle" fill="#FFFFFF">(81-100%)</text>
  <text x="128" y="240" font-size="12" font-family="Arial" text-anchor="middle" fill="#FFFFFF80">PLACEHOLDER</text>
</svg>
